# xmcd
#
# Track frame offsets: 
#        150
#        46927
#        55644
#        104071
#        135004
#
# Disc length: 2073 seconds
#
# Revision: 0
# Processed by: cddbd v1.5.2PL0 Copyright (c) Steve Scherf et al.
# Submitted via: ExactAudioCopy v0.95b4
#
DISCID=37081705
DTITLE=Loren Connors - Red Mars (rec. at home and live in New York 2010)
DTITLE=(Family Vineyard Sept. 2011)
DYEAR=2011
DGENRE=Avantgarde
TTITLE0=On Our Way
TTITLE1=Red Mars I
TTITLE2=Red Mars II
TTITLE3=Showers Of Meteors
TTITLE4=Little Earth
EXTD=
EXTT0=
EXTT1=
EXTT2=
EXTT3=
EXTT4=
PLAYORDER=
